<svg xmlns="http://www.w3.org/2000/svg" viewBox="0 0 91.39 61.02"><defs><style>.cls-1{fill:#fbb03b;}</style></defs><g id="Calque_2" data-name="Calque 2"><g id="Layer_1" data-name="Layer 1"><path class="cls-1" d="M.81,25.89a1,1,0,0,1-.35-.07L0,25.62A2.77,2.77,0,0,0,.58,24.2a1.93,1.93,0,0,0-.49-1.36c.08-.1.16-.21.26-.32s.17-.22.25-.31a.78.78,0,0,1-.44-.46,2.39,2.39,0,0,1-.07-.65V2.29c0-.1,0-.21,0-.33s0-.25,0-.39c.46,0,.92,0,1.38-.05a3.64,3.64,0,0,1,1.35.17,2.91,2.91,0,0,0,.89.22c.3,0,.61.08.91.14A8,8,0,0,1,7.44,3.19,20.29,20.29,0,0,1,9.81,5a7.11,7.11,0,0,1,1.74,2.31A27.94,27.94,0,0,1,12.63,10a5.32,5.32,0,0,1,.24,1.37c0,.47,0,.94,0,1.4,0,.26,0,.52,0,.79a7.73,7.73,0,0,0,0,.83,8,8,0,0,1-.42,3.38A15.44,15.44,0,0,1,11,20.91a1.77,1.77,0,0,1-.41.5l-.49.46q-.48.4-.93.84c-.3.3-.62.6-1,.88a5.93,5.93,0,0,1-.74.49l-.82.47a5.11,5.11,0,0,1-.93.32,1.2,1.2,0,0,0-.75.67c0,.12-.18.21-.41.27a2.38,2.38,0,0,1-.61.08A27.06,27.06,0,0,1,.81,25.89Z"/><path class="cls-1" d="M27.75,27a.47.47,0,0,1-.36-.12,1,1,0,0,1-.15-.4c0-.79,0-1.61,0-2.43s-.06-1.61-.1-2.39V18H25.32c0,.26,0,.5,0,.75v.72c0,.48,0,1-.05,1.45s0,1-.07,1.48,0,1.22-.06,1.84-.05,1.24-.09,1.88a.91.91,0,0,1-.09.49c-.06.07-.23.11-.51.11s-.45,0-.68.1a.79.79,0,0,1-.64-.21s-.07,0-.14,0a.18.18,0,0,1-.16,0,1.87,1.87,0,0,1-.32,0l-.34-.06a2.82,2.82,0,0,1-1.19.17c-.41,0-.84-.06-1.3-.07V25.6a12.68,12.68,0,0,0,0-1.85A4.38,4.38,0,0,1,19.86,22a.54.54,0,0,0,.06-.3c0-.43,0-.86,0-1.27s0-.82,0-1.24C19.92,18.06,20,17,20,16s.1-1.82.12-2.72,0-1.81,0-2.73q.06-1,.06-2.1V6.34c0-.26-.05-.52-.08-.78a3.16,3.16,0,0,1,0-.81,7,7,0,0,1,.84-2.1A5.13,5.13,0,0,1,22.5,1.06l.82-.53a3,3,0,0,1,.89-.37A.29.29,0,0,0,24.36.1.37.37,0,0,1,24.57,0l1.69,0A9.64,9.64,0,0,1,28,.1a1.94,1.94,0,0,1,.85.28,6.08,6.08,0,0,1,.77.53A5.69,5.69,0,0,1,31,2.47,11.93,11.93,0,0,1,32,4.36a2,2,0,0,0,.15,1.22,7.57,7.57,0,0,1,.42,1.21V27H27.75Zm-.66-14.61a9.23,9.23,0,0,1,0-1.67,8.54,8.54,0,0,0,0-1.6,10.42,10.42,0,0,1,0-1.58,6.17,6.17,0,0,0-.09-1.6l-.71,0-.67,0q0,1.59-.09,3.18l-.12,3.18Z"/><path class="cls-1" d="M46.71,25.66a1.79,1.79,0,0,1,0,.23,2.26,2.26,0,0,0,0,.27h-5c0-.55,0-1.11-.08-1.65a9.36,9.36,0,0,1,0-1.59,13.73,13.73,0,0,0,.09-1.59c0-.53,0-1.06,0-1.55l.06-1.67.06-1.64c0-.53,0-1.08,0-1.64V13.18q0-.81.06-1.65T42,9.88l.06-1.67c0-.55,0-1.13.06-1.75h3.12V6.37H39.09V1.81l.46,0H40l3.42-.05h3.42c.64,0,1.27,0,1.9,0l1.94.06V6l-1.76.18-1.72.18c0,.62,0,1.23,0,1.84s0,1.22,0,1.81a8.85,8.85,0,0,0,0,1,2.81,2.81,0,0,1,0,.58,3.89,3.89,0,0,1-.09.53,5.78,5.78,0,0,1-.14.9,2.33,2.33,0,0,0,0,.87,7.34,7.34,0,0,1,.1,1.93,18.4,18.4,0,0,0,0,2,6.69,6.69,0,0,1,0,1.34c-.05.47-.09.91-.13,1.36,0,.87,0,1.74,0,2.58S46.75,24.79,46.71,25.66Z"/><path class="cls-1" d="M64.67,27a.48.48,0,0,1-.36-.12,1.24,1.24,0,0,1-.15-.4c0-.79,0-1.61,0-2.43s-.07-1.61-.1-2.39V18H62.24c0,.26,0,.5,0,.75v.72c0,.48,0,1,0,1.45s0,1-.08,1.48,0,1.22-.06,1.84,0,1.24-.09,1.88a.94.94,0,0,1-.08.49c-.06.07-.24.11-.52.11s-.44,0-.67.1a.82.82,0,0,1-.65-.21s-.06,0-.13,0a.18.18,0,0,1-.16,0,1.87,1.87,0,0,1-.32,0l-.34-.06a2.82,2.82,0,0,1-1.19.17c-.41,0-.85-.06-1.3-.07V25.6a14.26,14.26,0,0,0,0-1.85A4.38,4.38,0,0,1,56.79,22a.65.65,0,0,0,.06-.3c0-.43,0-.86,0-1.27s0-.82,0-1.24c.06-1.09.09-2.13.09-3.16s.09-1.82.12-2.72,0-1.81,0-2.73c0-.7.07-1.4.07-2.1V6.34c0-.26-.05-.52-.08-.78a3.67,3.67,0,0,1,0-.81,7.56,7.56,0,0,1,.84-2.1,5.17,5.17,0,0,1,1.57-1.59l.82-.53a3.1,3.1,0,0,1,.88-.37A.29.29,0,0,0,61.29.1.33.33,0,0,1,61.5,0l1.69,0A9.53,9.53,0,0,1,64.88.1a2,2,0,0,1,.86.28,6.89,6.89,0,0,1,.77.53,5.85,5.85,0,0,1,1.42,1.56,11.89,11.89,0,0,1,.94,1.89A2,2,0,0,0,69,5.58a6.7,6.7,0,0,1,.42,1.21V27H64.67ZM64,12.37a8.42,8.42,0,0,1,0-1.67,9.48,9.48,0,0,0,0-1.6,8.34,8.34,0,0,1,0-1.58,6.18,6.18,0,0,0-.1-1.6l-.7,0-.67,0c0,1.06,0,2.12-.1,3.18s-.08,2.12-.11,3.18Z"/><path class="cls-1" d="M28,40.71q0,1-.12,1.89t-.15,1.89c0,.56,0,1.12,0,1.67v1.69c0,.6,0,1.2.07,1.79s.05,1.18.08,1.78.05,1.13,0,1.7a8.75,8.75,0,0,1-.19,1.69.52.52,0,0,0,0,.32,1.93,1.93,0,0,1,.11.34c0,.14.08.28.13.41a1.92,1.92,0,0,1,.11.37,4.26,4.26,0,0,1-.08,1,2.25,2.25,0,0,0,0,1,.37.37,0,0,1-.12.41,1,1,0,0,1-.48.16,5.4,5.4,0,0,1-1.34-.1c-.43-.09-.87-.2-1.33-.32a10.65,10.65,0,0,1-2.18-.9c-.69-.38-1.38-.78-2.08-1.2a8.52,8.52,0,0,1-2.63-2.65,16.67,16.67,0,0,1-1.6-3.44,2.88,2.88,0,0,1,0-.33c0-.12,0-.23,0-.33q0-.93,0-1.86a14.45,14.45,0,0,0-.06-1.86,6.14,6.14,0,0,1,.4-2.7,13.45,13.45,0,0,1,1.25-2.37,12.86,12.86,0,0,1,3-3.12,13.71,13.71,0,0,1,3.9-1.95,2.48,2.48,0,0,0,.51-.19,1.16,1.16,0,0,1,.51-.14,11.9,11.9,0,0,1,1.2-.06H28.1q0,.45,0,.81a2.63,2.63,0,0,1,0,.69c0,.66-.05,1.32-.06,2S28,40.07,28,40.71Zm3.27,12.45q0,.6,0,1.17c0,.38,0,.77,0,1.17s0,.77,0,1.16a4.31,4.31,0,0,0,.09,1.18c0,.26,0,.43-.08.51a1.06,1.06,0,0,1-.53.18l-.76.14-.76.13q-.81.09-.9-.66c0-.24,0-.48,0-.73a5.45,5.45,0,0,1,0-.71c0-.7,0-1.39,0-2.08s0-1.39.06-2.09c0-.34,0-.56.15-.66a.93.93,0,0,1,.63-.15c.31,0,.64,0,1,0h1.13a6.11,6.11,0,0,0,0,.75Q31.22,52.83,31.22,53.16ZM28.58,35.4h3a9.08,9.08,0,0,0,0,1.64,7.21,7.21,0,0,1-.1,1.6,7.2,7.2,0,0,0-.17,1.47c0,.5,0,1,0,1.5,0,.2,0,.39,0,.57s0,.37,0,.57a1,1,0,0,1-.17.48.48.48,0,0,1-.46.15l-.89-.06a4.09,4.09,0,0,1-.85-.15.58.58,0,0,1-.57-.66q.06-1.77.15-3.51c.05-1.16.11-2.32.15-3.48A.31.31,0,0,1,28.58,35.4Z"/><path class="cls-1" d="M38.83,56.85a2.15,2.15,0,0,1-.07-.85,3.75,3.75,0,0,0,0-.89V34.77l.24-.06a.57.57,0,0,1,.18,0q1.05-.06,2.1-.09l2.07-.06a.72.72,0,0,1,.47.12.59.59,0,0,1,.13.45,5.77,5.77,0,0,1,0,.72c0,.24,0,.49,0,.75q0,3.66,0,7.31t0,7.3v3.24H45a4.32,4.32,0,0,0,.21-2.52,2.91,2.91,0,0,1,0-.31,1.13,1.13,0,0,1,0-.32c0-.2,0-.4,0-.61a1.33,1.33,0,0,1,.16-.59.43.43,0,0,0,0-.55.47.47,0,0,1-.09-.53,1.36,1.36,0,0,0,.06-.57q0-.3,0-.6l.12-2.2c0-.73.07-1.47.09-2.21q.09-2,.09-4l.06-2.29.06-2.3a.76.76,0,0,1,0-.27,1.76,1.76,0,0,0,.07-.27,12.57,12.57,0,0,1,2.45-.06,8.41,8.41,0,0,0,2.44-.18.54.54,0,0,1,.29.45c0,.16,0,.35,0,.57q-.06.66-.06,1.29v1.29c0,.54,0,1.1,0,1.67s0,1.13-.08,1.69a8.35,8.35,0,0,0,0,.87c0,.3,0,.6,0,.9a14.42,14.42,0,0,1,0,1.86c0,.62,0,1.24-.07,1.86s-.07,1.24-.11,1.86c0,.92-.07,1.84-.09,2.75s0,1.83-.06,2.77a4.3,4.3,0,0,0,0,.8,3.23,3.23,0,0,1,0,.82,5.53,5.53,0,0,1-1,2.52,7,7,0,0,1-2.06,1.83,4.79,4.79,0,0,1-2.25.68,16.12,16.12,0,0,1-2.31-.08,4.08,4.08,0,0,1-1.59-.66,6.54,6.54,0,0,1-1.35-1.23c-.2-.26-.4-.53-.6-.82A3.41,3.41,0,0,1,38.83,56.85Z"/><path class="cls-1" d="M74.14,35.25a.4.4,0,0,1,.24.09,1.89,1.89,0,0,1,.05,1.26c-.13.4-.25.8-.35,1.2q-.48,1.74-.93,3.45l-.9,3.39c-.22.74-.43,1.48-.64,2.22s-.42,1.48-.62,2.22-.4,1.66-.6,2.51-.4,1.68-.6,2.5-.39,1.6-.58,2.39-.39,1.56-.59,2.32c0,.24-.07.48-.1.72s-.07.48-.11.72c-.38,0-.74,0-1.08,0a2.9,2.9,0,0,1-1-.23,2.37,2.37,0,0,0-2,0,2.87,2.87,0,0,1-1,.24,6.2,6.2,0,0,1-1,0c-.14-.46-.27-.92-.4-1.38s-.26-.92-.38-1.38-.34-1.08-.49-1.63-.31-1.11-.47-1.67c-.32-1.2-.64-2.39-1-3.57s-.67-2.37-1-3.57-.68-2.64-1-4-.7-2.66-1-4c-.14-.6-.29-1.18-.46-1.75a5.61,5.61,0,0,1-.23-1.79,1.37,1.37,0,0,1,0-.19,1.16,1.16,0,0,0,0-.17q.69-.24,1.23-.48a1.71,1.71,0,0,1,.71-.15,4.4,4.4,0,0,0,.73-.06c.4-.1.8-.22,1.19-.36s.77-.26,1.15-.36l.41-.12.46-.15c.24,1,.52,2,.83,3s.6,1.92.88,2.92.52,1.94.77,2.93.51,2,.79,3.07c.16-.68.32-1.31.47-1.89s.29-1.15.43-1.71.29-1.14.44-1.69.29-1.11.43-1.67.33-1.36.5-2,.32-1.38.46-2.06a.45.45,0,0,1,.48-.39h.3a.6.6,0,0,1,.27.06l2.69.62Z"/><path class="cls-1" d="M86.89,45.51c0,.92,0,1.85-.1,2.79s-.1,1.88-.14,2.82c0,.26,0,.53-.07.8a7.13,7.13,0,0,0,0,.79c0,1.22,0,2.42,0,3.59s-.08,2.34-.06,3.52a.8.8,0,0,1-.19.68,1.13,1.13,0,0,1-.74.19h-.87a1.44,1.44,0,0,1-.45-.06,3.92,3.92,0,0,1-.48-.21l-.27.23-.39.37c-.08-.12-.15-.24-.22-.37a3.93,3.93,0,0,0-.26-.41,1.58,1.58,0,0,1-.22.32,1.29,1.29,0,0,0-.2.25l-.1,0a.12.12,0,0,1-.11,0,.69.69,0,0,0-.49-.33,1.33,1.33,0,0,0-.56.06,1.12,1.12,0,0,1-.72.11,4.29,4.29,0,0,1-.69-.23,2.92,2.92,0,0,1,0-.93q.09-.48.15-1a1,1,0,0,1,0-.15.14.14,0,0,0,0-.12,2.94,2.94,0,0,1-.25-1.38,8.61,8.61,0,0,1,.19-1.35c0-.2.09-.4.14-.6s.09-.42.13-.66a.52.52,0,0,1-.28-.46,4.26,4.26,0,0,1,0-.62c.06-.48.1-1,.12-1.45s0-1,.06-1.43q0-1.11.06-2.19T79.9,46L80,42.14c0-1.29.07-2.58.09-3.86,0-.58.06-1.16.06-1.75s0-1.17,0-1.73a1.42,1.42,0,0,1,0-.31c0-.09,0-.21.06-.35h.42l.39,0h4.77l.35,0,.37-.06q.66,0,.57.6a5.08,5.08,0,0,0-.07,1.28,7.75,7.75,0,0,1,0,1.27c0,.36-.07.73-.09,1.1s0,.73-.09,1.09a8.69,8.69,0,0,0,0,.89,8.51,8.51,0,0,1,0,.88,2,2,0,0,1,0,.42c0,.14-.06.29-.08.45s0,.13-.07.2a.26.26,0,0,0,0,.19,1.33,1.33,0,0,1,.11.89,4,4,0,0,1-.32.85.7.7,0,0,1,.39.6A5.54,5.54,0,0,1,86.89,45.51Zm.63,15q-.75,0-.75-.78V56.16a4.3,4.3,0,0,0-.09-.84.62.62,0,0,0,0-.13.89.89,0,0,1,0-.11,3.32,3.32,0,0,0,.15-1.45,8.51,8.51,0,0,1-.06-1.43,1.24,1.24,0,0,1,.18-.67,1.29,1.29,0,0,1,.69-.11h3.06c0,.18,0,.34,0,.47s0,.26,0,.4c0,.58,0,1.16,0,1.74s0,1.16,0,1.74A7.45,7.45,0,0,0,90.72,57a10.3,10.3,0,0,1,.13,1.27q0,.39,0,.84V60a.45.45,0,0,1-.51.51c-.48,0-1,0-1.44,0S88,60.53,87.52,60.51Zm3.57-21.09c0,.56-.07,1.12-.1,1.68s-.07,1.11-.11,1.65a.07.07,0,0,1,0,0,.1.1,0,0,0,0,.07,12.78,12.78,0,0,0-1.75,0,7.35,7.35,0,0,1-1.85-.12L87.31,41l.06-1.74a6.62,6.62,0,0,0,.06-.88c0-.29,0-.59,0-.89q.06-.75.15-1.47t.12-1.47q0-.45.39-.45l1.61.08,1.66.07q0,.81-.06,1.56t-.06,1.47c0,.38,0,.75-.07,1.1S91.13,39.08,91.09,39.42Zm-1.77,5.1a1.21,1.21,0,0,1,.77.23c.13.13.17.39.13.79s0,.75-.06,1.11l-.06,1.11a11.14,11.14,0,0,0,.09,1.38,1.1,1.1,0,0,1-.12.72,1,1,0,0,1-.69.21,1.1,1.1,0,0,1-.3,0l-.27,0a4.82,4.82,0,0,1-.9,0,.29.29,0,0,1-.25-.3c0-.17,0-.44,0-.8V45.51a1.25,1.25,0,0,1,.21-.78,1.1,1.1,0,0,1,.75-.18,2.34,2.34,0,0,1,.38,0Z"/></g></g></svg>