<svg id="Calque_1" data-name="Calque 1" xmlns="http://www.w3.org/2000/svg" viewBox="0 0 375 130.65"><defs><style>.cls-1{fill:#fbfbfb;}.cls-2{fill:#ffdc0a;}</style></defs><path class="cls-1" d="M59.23,257.57h29a67.57,67.57,0,0,1,21.1,3.11,41.65,41.65,0,0,1,16.2,9.57,43.25,43.25,0,0,1,10.39,16.44q3.67,10,3.68,23.72t-3.68,23.88a45,45,0,0,1-10.31,16.77,41.94,41.94,0,0,1-15.79,9.9,60,60,0,0,1-20.28,3.27H59.23Zm27.64,87.19A34.24,34.24,0,0,0,98.24,343a21.33,21.33,0,0,0,8.83-5.8,27.3,27.3,0,0,0,5.73-10.56,55,55,0,0,0,2-16.19,53.65,53.65,0,0,0-2-16,25.8,25.8,0,0,0-5.73-10.3,20.56,20.56,0,0,0-8.83-5.48A37.4,37.4,0,0,0,86.87,277H83.44v67.72Z" transform="translate(-59.23 -257.57)"/><path class="cls-1" d="M147.4,257.57h24.53l3.44,56.77q.16,6.87.33,13.57t.32,13.58h.49q1.32-6.87,2.87-13.58t2.86-13.57l7.36-29.61h14.56l7,29.61q1.31,6.54,2.78,13.41t2.78,13.74h.66q.33-6.87.41-13.66t.41-13.49l3.11-56.77h22.9L231,364.23H205.8l-6.71-33.54c-.66-3.37-1.26-6.84-1.8-10.38s-.93-6.9-1.15-10.06h-.49q-.48,4.74-1.22,10.06c-.49,3.54-1.07,7-1.72,10.38l-6.38,33.54h-24.7Z" transform="translate(-59.23 -257.57)"/><path class="cls-1" d="M281.86,277.86H250V257.57h88v20.29h-31.9v86.37H281.86Z" transform="translate(-59.23 -257.57)"/><rect class="cls-2" x="302.3" y="106.66" width="72.7" height="23.99"/></svg>